{
	"asset":{
		"generator":"Khronos glTF Blender I/O v3.5.30",
		"version":"2.0"
	},
	"scene":0,
	"scenes":[
		{
			"name":"Scene",
			"nodes":[
				0,
				1,
				2,
				3,
				4,
				5
			]
		}
	],
	"nodes":[
		{
			"mesh":0,
			"name":"Cube",
			"rotation":[
				0,
				-0.3826834559440613,
				0,
				0.9238795042037964
			],
			"translation":[
				-0.5252577066421509,
				-0.863322377204895,
				-0.5883638262748718
			]
		},
		{
			"mesh":1,
			"name":"Cube.001",
			"rotation":[
				0,
				-0.3826834559440613,
				0,
				0.9238795042037964
			],
			"scale":[
				1,
				0.4704621732234955,
				1
			],
			"translation":[
				-0.5252577066421509,
				-2.1448750495910645,
				-0.5883638262748718
			]
		},
		{
			"mesh":2,
			"name":"Text",
			"rotation":[
				0.6532815098762512,
				0.27059805393218994,
				-0.27059805393218994,
				0.6532815098762512
			],
			"scale":[
				1.8576200008392334,
				1.8576200008392334,
				1.8576200008392334
			],
			"translation":[
				0.5231578350067139,
				0.3309924602508545,
				0.4297935366630554
			]
		},
		{
			"mesh":3,
			"name":"Cylinder",
			"rotation":[
				0.27059808373451233,
				-0.27059805393218994,
				-0.6532814502716064,
				0.6532815098762512
			],
			"scale":[
				0.041392482817173004,
				0.3418249487876892,
				0.041392482817173004
			],
			"translation":[
				0.16311900317668915,
				0.3744274377822876,
				0.10001291334629059
			]
		},
		{
			"mesh":4,
			"name":"Cube.002",
			"rotation":[
				0.9238795638084412,
				0,
				0.3826834559440613,
				0
			],
			"scale":[
				-0.09262506663799286,
				-0.42715489864349365,
				-1
			],
			"translation":[
				0.3100636899471283,
				-2.164364814758301,
				0.24695758521556854
			]
		},
		{
			"mesh":5,
			"name":"Text.001",
			"rotation":[
				0.6532815098762512,
				0.27059805393218994,
				-0.27059805393218994,
				0.6532815098762512
			],
			"scale":[
				0.4103620946407318,
				0.4103620946407318,
				0.4103620946407318
			],
			"translation":[
				0.3609549105167389,
				-2.153323173522949,
				0.378567636013031
			]
		}
	],
	"materials":[
		{
			"doubleSided":true,
			"name":"Material",
			"pbrMetallicRoughness":{
				"baseColorFactor":[
					0.42922908067703247,
					0.1132097840309143,
					0.04946102201938629,
					1
				],
				"metallicFactor":0,
				"roughnessFactor":0.5
			}
		},
		{
			"doubleSided":true,
			"name":"Material.001",
			"pbrMetallicRoughness":{
				"baseColorFactor":[
					0.8000000715255737,
					0.22062285244464874,
					0.110806405544281,
					1
				],
				"metallicFactor":0,
				"roughnessFactor":0.5
			}
		},
		{
			"doubleSided":true,
			"name":"Material.002",
			"pbrMetallicRoughness":{
				"metallicFactor":0,
				"roughnessFactor":0.5
			}
		}
	],
	"meshes":[
		{
			"name":"Cube",
			"primitives":[
				{
					"attributes":{
						"POSITION":0,
						"TEXCOORD_0":1,
						"NORMAL":2
					},
					"indices":3,
					"material":0
				}
			]
		},
		{
			"name":"Cube.001",
			"primitives":[
				{
					"attributes":{
						"POSITION":4,
						"TEXCOORD_0":5,
						"NORMAL":6
					},
					"indices":7,
					"material":1
				}
			]
		},
		{
			"name":"Text",
			"primitives":[
				{
					"attributes":{
						"POSITION":8,
						"TEXCOORD_0":9,
						"NORMAL":10
					},
					"indices":11,
					"material":2
				}
			]
		},
		{
			"name":"Cylinder",
			"primitives":[
				{
					"attributes":{
						"POSITION":12,
						"TEXCOORD_0":13,
						"NORMAL":14
					},
					"indices":15
				}
			]
		},
		{
			"name":"Cube.002",
			"primitives":[
				{
					"attributes":{
						"POSITION":16,
						"TEXCOORD_0":17,
						"NORMAL":18
					},
					"indices":19,
					"material":0
				}
			]
		},
		{
			"name":"Text.001",
			"primitives":[
				{
					"attributes":{
						"POSITION":20,
						"TEXCOORD_0":21,
						"NORMAL":22
					},
					"indices":23,
					"material":2
				}
			]
		}
	],
	"accessors":[
		{
			"bufferView":0,
			"componentType":5126,
			"count":8929,
			"max":[
				1.0780240297317505,
				2.5201303958892822,
				1.0780240297317505
			],
			"min":[
				-1.0780240297317505,
				-0.9910409450531006,
				-1.0780240297317505
			],
			"type":"VEC3"
		},
		{
			"bufferView":1,
			"componentType":5126,
			"count":8929,
			"type":"VEC2"
		},
		{
			"bufferView":2,
			"componentType":5126,
			"count":8929,
			"type":"VEC3"
		},
		{
			"bufferView":3,
			"componentType":5123,
			"count":52224,
			"type":"SCALAR"
		},
		{
			"bufferView":4,
			"componentType":5126,
			"count":40,
			"max":[
				1.1436055898666382,
				1,
				1.1436055898666382
			],
			"min":[
				-1.1436055898666382,
				-1.0453850030899048,
				-1.1436055898666382
			],
			"type":"VEC3"
		},
		{
			"bufferView":5,
			"componentType":5126,
			"count":40,
			"type":"VEC2"
		},
		{
			"bufferView":6,
			"componentType":5126,
			"count":40,
			"type":"VEC3"
		},
		{
			"bufferView":7,
			"componentType":5123,
			"count":60,
			"type":"SCALAR"
		},
		{
			"bufferView":8,
			"componentType":5126,
			"count":4,
			"max":[
				0.050000011920928955,
				0,
				0.30000001192092896
			],
			"min":[
				-0.047999992966651917,
				0,
				-0.38200002908706665
			],
			"type":"VEC3"
		},
		{
			"bufferView":9,
			"componentType":5126,
			"count":4,
			"type":"VEC2"
		},
		{
			"bufferView":10,
			"componentType":5126,
			"count":4,
			"type":"VEC3"
		},
		{
			"bufferView":11,
			"componentType":5123,
			"count":6,
			"type":"SCALAR"
		},
		{
			"bufferView":12,
			"componentType":5126,
			"count":130,
			"max":[
				1,
				1,
				1
			],
			"min":[
				-1,
				-1,
				-1
			],
			"type":"VEC3"
		},
		{
			"bufferView":13,
			"componentType":5126,
			"count":130,
			"type":"VEC2"
		},
		{
			"bufferView":14,
			"componentType":5126,
			"count":130,
			"type":"VEC3"
		},
		{
			"bufferView":15,
			"componentType":5123,
			"count":372,
			"type":"SCALAR"
		},
		{
			"bufferView":16,
			"componentType":5126,
			"count":24,
			"max":[
				1,
				1,
				1
			],
			"min":[
				-1,
				-1,
				-1
			],
			"type":"VEC3"
		},
		{
			"bufferView":17,
			"componentType":5126,
			"count":24,
			"type":"VEC2"
		},
		{
			"bufferView":18,
			"componentType":5126,
			"count":24,
			"type":"VEC3"
		},
		{
			"bufferView":19,
			"componentType":5123,
			"count":36,
			"type":"SCALAR"
		},
		{
			"bufferView":20,
			"componentType":5126,
			"count":642,
			"max":[
				1.3870002031326294,
				0,
				0.9390000104904175
			],
			"min":[
				-1.4310002326965332,
				0,
				-0.8820000290870667
			],
			"type":"VEC3"
		},
		{
			"bufferView":21,
			"componentType":5126,
			"count":642,
			"type":"VEC2"
		},
		{
			"bufferView":22,
			"componentType":5126,
			"count":642,
			"type":"VEC3"
		},
		{
			"bufferView":23,
			"componentType":5123,
			"count":1869,
			"type":"SCALAR"
		}
	],
	"bufferViews":[
		{
			"buffer":0,
			"byteLength":107148,
			"byteOffset":0,
			"target":34962
		},
		{
			"buffer":0,
			"byteLength":71432,
			"byteOffset":107148,
			"target":34962
		},
		{
			"buffer":0,
			"byteLength":107148,
			"byteOffset":178580,
			"target":34962
		},
		{
			"buffer":0,
			"byteLength":104448,
			"byteOffset":285728,
			"target":34963
		},
		{
			"buffer":0,
			"byteLength":480,
			"byteOffset":390176,
			"target":34962
		},
		{
			"buffer":0,
			"byteLength":320,
			"byteOffset":390656,
			"target":34962
		},
		{
			"buffer":0,
			"byteLength":480,
			"byteOffset":390976,
			"target":34962
		},
		{
			"buffer":0,
			"byteLength":120,
			"byteOffset":391456,
			"target":34963
		},
		{
			"buffer":0,
			"byteLength":48,
			"byteOffset":391576,
			"target":34962
		},
		{
			"buffer":0,
			"byteLength":32,
			"byteOffset":391624,
			"target":34962
		},
		{
			"buffer":0,
			"byteLength":48,
			"byteOffset":391656,
			"target":34962
		},
		{
			"buffer":0,
			"byteLength":12,
			"byteOffset":391704,
			"target":34963
		},
		{
			"buffer":0,
			"byteLength":1560,
			"byteOffset":391716,
			"target":34962
		},
		{
			"buffer":0,
			"byteLength":1040,
			"byteOffset":393276,
			"target":34962
		},
		{
			"buffer":0,
			"byteLength":1560,
			"byteOffset":394316,
			"target":34962
		},
		{
			"buffer":0,
			"byteLength":744,
			"byteOffset":395876,
			"target":34963
		},
		{
			"buffer":0,
			"byteLength":288,
			"byteOffset":396620,
			"target":34962
		},
		{
			"buffer":0,
			"byteLength":192,
			"byteOffset":396908,
			"target":34962
		},
		{
			"buffer":0,
			"byteLength":288,
			"byteOffset":397100,
			"target":34962
		},
		{
			"buffer":0,
			"byteLength":72,
			"byteOffset":397388,
			"target":34963
		},
		{
			"buffer":0,
			"byteLength":7704,
			"byteOffset":397460,
			"target":34962
		},
		{
			"buffer":0,
			"byteLength":5136,
			"byteOffset":405164,
			"target":34962
		},
		{
			"buffer":0,
			"byteLength":7704,
			"byteOffset":410300,
			"target":34962
		},
		{
			"buffer":0,
			"byteLength":3738,
			"byteOffset":418004,
			"target":34963
		}
	],
	"buffers":[
		{
			"byteLength":421744,
			"uri":"data:application/octet-stream;base64,"
		}
	]
}
