{
	"asset":{
		"generator":"Khronos glTF Blender I/O v3.5.30",
		"version":"2.0"
	},
	"scene":0,
	"scenes":[
		{
			"name":"Scene",
			"nodes":[
				0,
				1,
				2,
				3,
				4,
				5,
				6
			]
		}
	],
	"nodes":[
		{
			"mesh":0,
			"name":"Cone"
		},
		{
			"mesh":1,
			"name":"Cone.001",
			"scale":[
				1.0377146005630493,
				1.0377146005630493,
				1.0377146005630493
			],
			"translation":[
				0,
				-0.45054709911346436,
				0
			]
		},
		{
			"name":"BezierCircle",
			"rotation":[
				-0.2519116997718811,
				0,
				0,
				0.9677503108978271
			],
			"scale":[
				-1.1127498149871826,
				-1.1127498149871826,
				-1.1127498149871826
			],
			"translation":[
				0,
				0,
				-0.07292204350233078
			]
		},
		{
			"mesh":2,
			"name":"Text",
			"rotation":[
				0.7071068286895752,
				0,
				0,
				0.7071068286895752
			],
			"translation":[
				1.6626672744750977,
				-0.04488182067871094,
				-0.1002349853515625
			]
		},
		{
			"mesh":3,
			"name":"Cone.002",
			"scale":[
				0.7587178945541382,
				0.7587178945541382,
				0.7587178945541382
			],
			"translation":[
				0,
				-0.23224720358848572,
				0
			]
		},
		{
			"mesh":4,
			"name":"Cone.003",
			"scale":[
				0.4854232370853424,
				0.4854232370853424,
				0.4854232370853424
			],
			"translation":[
				0,
				-0.4986373484134674,
				0
			]
		},
		{
			"mesh":5,
			"name":"Cone.004",
			"scale":[
				0.31480592489242554,
				0.31480592489242554,
				0.31480592489242554
			],
			"translation":[
				0,
				-0.6632003784179688,
				0
			]
		}
	],
	"materials":[
		{
			"doubleSided":true,
			"name":"Material.003",
			"pbrMetallicRoughness":{
				"baseColorFactor":[
					1,
					0.3150179982185364,
					0.05770748853683472,
					1
				],
				"metallicFactor":0,
				"roughnessFactor":0.5
			}
		},
		{
			"doubleSided":true,
			"name":"Material.002",
			"pbrMetallicRoughness":{
				"baseColorFactor":[
					0.41093742847442627,
					0.3939543068408966,
					0.40665215253829956,
					1
				],
				"metallicFactor":0,
				"roughnessFactor":0.5
			}
		},
		{
			"doubleSided":true,
			"name":"Material.005",
			"pbrMetallicRoughness":{
				"baseColorFactor":[
					0.2537892460823059,
					0.6078951954841614,
					1,
					1
				],
				"metallicFactor":0,
				"roughnessFactor":0.5
			}
		}
	],
	"meshes":[
		{
			"name":"Cone",
			"primitives":[
				{
					"attributes":{
						"POSITION":0,
						"TEXCOORD_0":1,
						"NORMAL":2
					},
					"indices":3,
					"material":0
				}
			]
		},
		{
			"name":"Cone.001",
			"primitives":[
				{
					"attributes":{
						"POSITION":4,
						"TEXCOORD_0":5,
						"NORMAL":6
					},
					"indices":7,
					"material":1
				}
			]
		},
		{
			"name":"Text.001",
			"primitives":[
				{
					"attributes":{
						"POSITION":8,
						"TEXCOORD_0":9,
						"NORMAL":10
					},
					"indices":11,
					"material":2
				}
			]
		},
		{
			"name":"Cone.002",
			"primitives":[
				{
					"attributes":{
						"POSITION":12,
						"TEXCOORD_0":13,
						"NORMAL":14
					},
					"indices":3,
					"material":0
				}
			]
		},
		{
			"name":"Cone.003",
			"primitives":[
				{
					"attributes":{
						"POSITION":15,
						"TEXCOORD_0":16,
						"NORMAL":17
					},
					"indices":3,
					"material":0
				}
			]
		},
		{
			"name":"Cone.004",
			"primitives":[
				{
					"attributes":{
						"POSITION":18,
						"TEXCOORD_0":19,
						"NORMAL":20
					},
					"indices":21,
					"material":2
				}
			]
		}
	],
	"accessors":[
		{
			"bufferView":0,
			"componentType":5126,
			"count":96,
			"max":[
				0.8959660530090332,
				1.037500023841858,
				0.5172862410545349
			],
			"min":[
				-0.8959660530090332,
				-1.0145256519317627,
				-1.0345724821090698
			],
			"type":"VEC3"
		},
		{
			"bufferView":1,
			"componentType":5126,
			"count":96,
			"type":"VEC2"
		},
		{
			"bufferView":2,
			"componentType":5126,
			"count":96,
			"type":"VEC3"
		},
		{
			"bufferView":3,
			"componentType":5123,
			"count":144,
			"type":"SCALAR"
		},
		{
			"bufferView":4,
			"componentType":5126,
			"count":18,
			"max":[
				0.8660253882408142,
				-0.5276259183883667,
				0.5
			],
			"min":[
				-0.8660253882408142,
				-1,
				-1
			],
			"type":"VEC3"
		},
		{
			"bufferView":5,
			"componentType":5126,
			"count":18,
			"type":"VEC2"
		},
		{
			"bufferView":6,
			"componentType":5126,
			"count":18,
			"type":"VEC3"
		},
		{
			"bufferView":7,
			"componentType":5123,
			"count":24,
			"type":"SCALAR"
		},
		{
			"bufferView":8,
			"componentType":5126,
			"count":336,
			"max":[
				-0.4977651834487915,
				0.9712971448898315,
				0.6199104189872742
			],
			"min":[
				-2.8541440963745117,
				-1.0661354064941406,
				-0.7993845343589783
			],
			"type":"VEC3"
		},
		{
			"bufferView":9,
			"componentType":5126,
			"count":336,
			"type":"VEC2"
		},
		{
			"bufferView":10,
			"componentType":5126,
			"count":336,
			"type":"VEC3"
		},
		{
			"bufferView":11,
			"componentType":5123,
			"count":420,
			"type":"SCALAR"
		},
		{
			"bufferView":12,
			"componentType":5126,
			"count":96,
			"max":[
				0.8959660530090332,
				1.037500023841858,
				0.5172862410545349
			],
			"min":[
				-0.8959660530090332,
				-1.0145256519317627,
				-1.0345724821090698
			],
			"type":"VEC3"
		},
		{
			"bufferView":13,
			"componentType":5126,
			"count":96,
			"type":"VEC2"
		},
		{
			"bufferView":14,
			"componentType":5126,
			"count":96,
			"type":"VEC3"
		},
		{
			"bufferView":15,
			"componentType":5126,
			"count":96,
			"max":[
				0.8959660530090332,
				1.037500023841858,
				0.5172862410545349
			],
			"min":[
				-0.8959660530090332,
				-1.0145256519317627,
				-1.0345724821090698
			],
			"type":"VEC3"
		},
		{
			"bufferView":16,
			"componentType":5126,
			"count":96,
			"type":"VEC2"
		},
		{
			"bufferView":17,
			"componentType":5126,
			"count":96,
			"type":"VEC3"
		},
		{
			"bufferView":18,
			"componentType":5126,
			"count":12,
			"max":[
				0.8660253882408142,
				1,
				0.5
			],
			"min":[
				-0.8660253882408142,
				-1,
				-1
			],
			"type":"VEC3"
		},
		{
			"bufferView":19,
			"componentType":5126,
			"count":12,
			"type":"VEC2"
		},
		{
			"bufferView":20,
			"componentType":5126,
			"count":12,
			"type":"VEC3"
		},
		{
			"bufferView":21,
			"componentType":5123,
			"count":12,
			"type":"SCALAR"
		}
	],
	"bufferViews":[
		{
			"buffer":0,
			"byteLength":1152,
			"byteOffset":0,
			"target":34962
		},
		{
			"buffer":0,
			"byteLength":768,
			"byteOffset":1152,
			"target":34962
		},
		{
			"buffer":0,
			"byteLength":1152,
			"byteOffset":1920,
			"target":34962
		},
		{
			"buffer":0,
			"byteLength":288,
			"byteOffset":3072,
			"target":34963
		},
		{
			"buffer":0,
			"byteLength":216,
			"byteOffset":3360,
			"target":34962
		},
		{
			"buffer":0,
			"byteLength":144,
			"byteOffset":3576,
			"target":34962
		},
		{
			"buffer":0,
			"byteLength":216,
			"byteOffset":3720,
			"target":34962
		},
		{
			"buffer":0,
			"byteLength":48,
			"byteOffset":3936,
			"target":34963
		},
		{
			"buffer":0,
			"byteLength":4032,
			"byteOffset":3984,
			"target":34962
		},
		{
			"buffer":0,
			"byteLength":2688,
			"byteOffset":8016,
			"target":34962
		},
		{
			"buffer":0,
			"byteLength":4032,
			"byteOffset":10704,
			"target":34962
		},
		{
			"buffer":0,
			"byteLength":840,
			"byteOffset":14736,
			"target":34963
		},
		{
			"buffer":0,
			"byteLength":1152,
			"byteOffset":15576,
			"target":34962
		},
		{
			"buffer":0,
			"byteLength":768,
			"byteOffset":16728,
			"target":34962
		},
		{
			"buffer":0,
			"byteLength":1152,
			"byteOffset":17496,
			"target":34962
		},
		{
			"buffer":0,
			"byteLength":1152,
			"byteOffset":18648,
			"target":34962
		},
		{
			"buffer":0,
			"byteLength":768,
			"byteOffset":19800,
			"target":34962
		},
		{
			"buffer":0,
			"byteLength":1152,
			"byteOffset":20568,
			"target":34962
		},
		{
			"buffer":0,
			"byteLength":144,
			"byteOffset":21720,
			"target":34962
		},
		{
			"buffer":0,
			"byteLength":96,
			"byteOffset":21864,
			"target":34962
		},
		{
			"buffer":0,
			"byteLength":144,
			"byteOffset":21960,
			"target":34962
		},
		{
			"buffer":0,
			"byteLength":24,
			"byteOffset":22104,
			"target":34963
		}
	],
	"buffers":[
		{
			"byteLength":22128,
			"uri":"data:application/octet-stream;base64,"
		}
	]
}
